<svg width="268" height="130" viewBox="0 0 268 30" fill="none" xmlns="http://www.w3.org/2000/svg">
<path d="M99.0801 25.74H96.9801C96.8181 25.74 96.6561 25.692 96.5181 25.602L81.6381 15.594C81.0921 15.228 80.3541 15.612 80.3541 16.26V24.858C80.3541 25.302 79.9881 25.668 79.5321 25.668H76.5741C76.1241 25.668 75.7521 25.308 75.7521 24.858V9.144C75.7521 8.7 76.1181 8.334 76.5741 8.334H78.7161C78.8781 8.334 79.0341 8.382 79.1721 8.472L94.0401 18.24C94.5861 18.6 95.3181 18.216 95.3181 17.568V9.144C95.3181 8.7 95.6841 8.334 96.1401 8.334H99.0801C99.5301 8.334 99.9021 8.694 99.9021 9.144V24.93C99.8961 25.38 99.5301 25.74 99.0801 25.74Z" fill="black"/>
<path d="M126.362 24.822C126.362 25.266 125.996 25.632 125.54 25.632H111.032C108.29 25.632 106.13 24.762 104.558 23.028C103.154 21.468 102.452 19.524 102.452 17.19C102.452 14.82 103.178 12.792 104.636 11.106C106.244 9.24 108.38 8.31 111.032 8.31H125.54C125.99 8.31 126.362 8.67 126.362 9.12V12C126.362 12.444 125.996 12.81 125.54 12.81H111.032C110.258 12.81 109.586 12.936 109.01 13.188C108.218 13.536 108.488 14.73 109.352 14.73H121.184C121.634 14.73 122.006 15.09 122.006 15.54V18.432C122.006 18.876 121.64 19.242 121.184 19.242H109.466C108.56 19.242 108.338 20.502 109.19 20.814C109.724 21.012 110.336 21.108 111.026 21.108H125.534C125.984 21.108 126.356 21.468 126.356 21.918V24.822H126.362Z" fill="black"/>
<path d="M152.552 25.668H148.37C148.166 25.668 147.962 25.59 147.812 25.452L141.77 19.944L135.668 25.452C135.518 25.59 135.32 25.668 135.11 25.668H130.958C130.214 25.668 129.854 24.774 130.394 24.276L138.272 16.938L130.412 9.70199C129.866 9.20399 130.226 8.30399 130.97 8.30399H135.116C135.32 8.30399 135.512 8.37599 135.662 8.50799L141.77 13.914L147.818 8.51399C147.968 8.38199 148.166 8.30399 148.364 8.30399H152.54C153.284 8.30399 153.644 9.20399 153.098 9.70199L145.208 16.938L153.116 24.276C153.656 24.774 153.296 25.668 152.552 25.668Z" fill="black"/>
<path d="M178.418 12.846H170.276C169.826 12.846 169.454 13.206 169.454 13.656V24.858C169.454 25.302 169.088 25.668 168.632 25.668H165.692C165.242 25.668 164.87 25.308 164.87 24.858V13.656C164.87 13.212 164.504 12.846 164.048 12.846H155.906C155.456 12.846 155.084 12.486 155.084 12.036V9.10199C155.084 8.65799 155.45 8.29199 155.906 8.29199H178.406C178.856 8.29199 179.228 8.65199 179.228 9.10199V12.036C179.24 12.486 178.874 12.846 178.418 12.846Z" fill="black"/>
<path d="M207.746 24.822C207.746 25.266 207.38 25.632 206.924 25.632H192.434C189.896 25.632 187.79 24.816 186.116 23.178C184.442 21.54 183.602 19.476 183.602 16.98C183.602 14.472 184.442 12.396 186.116 10.758C187.79 9.11999 189.896 8.30399 192.434 8.30399H206.924C207.374 8.30399 207.746 8.66399 207.746 9.11399V12C207.746 12.444 207.38 12.81 206.924 12.81H192.434C191.156 12.81 190.136 13.188 189.362 13.944C188.588 14.7 188.204 15.708 188.204 16.98C188.204 18.258 188.582 19.266 189.344 20.004C190.106 20.742 191.132 21.108 192.434 21.108H202.34C202.79 21.108 203.162 20.748 203.162 20.298V20.046C203.162 19.602 202.796 19.236 202.34 19.236H193.136C192.686 19.236 192.314 18.876 192.314 18.426V15.534C192.314 15.09 192.68 14.724 193.136 14.724H206.918C207.368 14.724 207.74 15.084 207.74 15.534V24.822H207.746Z" fill="#E69F2D"/>
<path d="M234.188 24.822C234.188 25.266 233.822 25.632 233.366 25.632H218.858C216.116 25.632 213.956 24.762 212.384 23.028C210.98 21.468 210.278 19.524 210.278 17.19C210.278 14.82 211.004 12.792 212.462 11.106C214.07 9.24 216.206 8.31 218.858 8.31H233.366C233.816 8.31 234.188 8.67 234.188 9.12V12C234.188 12.444 233.822 12.81 233.366 12.81H218.858C218.084 12.81 217.412 12.936 216.836 13.188C216.044 13.536 216.314 14.73 217.178 14.73H229.01C229.46 14.73 229.832 15.09 229.832 15.54V18.432C229.832 18.876 229.466 19.242 229.01 19.242H217.292C216.386 19.242 216.164 20.502 217.016 20.814C217.55 21.012 218.162 21.108 218.852 21.108H233.36C233.81 21.108 234.182 21.468 234.182 21.918V24.822H234.188Z" fill="#E69F2D"/>
<path d="M260.654 25.74H258.302L243.212 15.594C242.666 15.228 241.928 15.612 241.928 16.26V24.858C241.928 25.302 241.562 25.668 241.106 25.668H238.148C237.698 25.668 237.326 25.308 237.326 24.858V9.144C237.326 8.7 237.692 8.334 238.148 8.334H240.536L255.614 18.24C256.16 18.6 256.892 18.216 256.892 17.568V9.144C256.892 8.7 257.258 8.334 257.714 8.334H260.654C261.104 8.334 261.476 8.694 261.476 9.144V24.93C261.476 25.38 261.11 25.74 260.654 25.74Z" fill="#E69F2D"/>
<path d="M64.76 1.51199L44.828 26.424C43.862 27.63 42.434 28.41 40.892 28.482C40.808 28.488 40.718 28.488 40.634 28.488C39.686 28.488 38.786 28.248 38.006 27.828C37.358 27.48 36.8001 26.982 36.3381 26.412L36.002 25.992L28.8801 17.064L26.1621 13.662C25.7841 13.188 25.0641 13.188 24.6861 13.662L15.6441 24.852L15.1761 25.428L12.9381 28.2C12.8001 28.374 12.5901 28.482 12.3741 28.488H6.51807L7.80807 26.886L9.57806 24.666L21.0141 10.482L21.5541 9.80399C21.5961 9.74999 21.6441 9.70799 21.6921 9.65399C21.6981 9.64799 21.6981 9.64799 21.6981 9.64799C23.6481 7.73399 26.7141 7.60799 28.7541 9.29399C28.8861 9.40199 29.0121 9.51599 29.1381 9.63599C29.1441 9.64199 29.1501 9.65399 29.1561 9.65999L29.8041 10.47L33.0861 14.574L36.7701 19.188L38.816 21.75C38.864 21.81 38.9181 21.876 38.9721 21.93L39.902 23.094C40.304 23.598 41.072 23.598 41.48 23.1L44.954 18.81L45.662 17.958L46.142 17.4L46.136 17.388L44.6 15.408L44.468 15.246C44.372 15.27 44.276 15.282 44.174 15.282C43.508 15.282 42.974 14.742 42.974 14.082C42.974 13.416 43.514 12.882 44.174 12.882C44.84 12.882 45.374 13.422 45.374 14.082C45.374 14.286 45.32 14.478 45.236 14.646L45.362 14.802L46.784 16.608L48.386 14.586L48.392 14.574L54.188 7.25399L54.35 7.04399L58.502 1.79399C58.64 1.61399 58.85 1.51199 59.072 1.51199H64.76Z" fill="black"/>
<path d="M31.6461 25.116L30.5781 26.328L30.5481 26.364L29.9301 27.078C28.9881 27.984 27.7221 28.494 26.3781 28.494C25.3581 28.494 24.3801 28.2 23.5521 27.636C23.3241 27.48 23.1021 27.306 22.8981 27.102C22.8621 27.066 22.8261 27.03 22.7961 27L22.4721 26.622L22.3401 26.472C22.3401 26.472 21.0621 24.996 20.2761 24.084L19.8921 23.634L19.7781 23.502C19.7241 23.436 19.7181 23.34 19.7721 23.274L19.8801 23.136L20.2881 22.62L22.3761 19.992L24.8001 22.812L24.8241 22.842L25.3701 23.472C25.6161 23.772 25.9881 23.946 26.3841 23.946C26.7801 23.946 27.1521 23.766 27.4041 23.454L27.6141 23.208L28.9641 21.6L29.2161 21.3L30.6021 23.004L30.9441 23.418L31.6641 24.288C31.8621 24.522 31.8561 24.876 31.6461 25.116Z" fill="#E69F2D"/>
<path d="M49.358 9.56999C49.418 9.64199 49.412 9.74399 49.352 9.81599L47.798 11.64L47.714 11.742L47.108 12.456L46.694 12.948L45.212 11.094L45.098 10.95C44.852 10.644 44.486 10.47 44.096 10.47C43.706 10.47 43.34 10.65 43.094 10.962L40.382 14.304L41.942 16.266L42.062 16.422C42.152 16.398 42.242 16.386 42.338 16.386C43.004 16.386 43.538 16.926 43.538 17.586C43.538 18.012 43.316 18.39 42.974 18.6C42.95 18.612 42.932 18.63 42.908 18.642C42.878 18.66 42.842 18.678 42.806 18.696C42.698 18.738 42.584 18.774 42.464 18.78C42.422 18.786 42.38 18.786 42.344 18.786C42.338 18.786 42.326 18.786 42.32 18.786C41.666 18.774 41.144 18.24 41.144 17.586C41.144 17.376 41.198 17.178 41.294 17.004L41.186 16.866L39.764 15.072L39.494 15.408L38.054 17.184L37.838 16.902L37.052 15.888L35.672 14.088C35.48 13.848 35.474 13.476 35.672 13.23L36.62 12L40.658 7.27199C41.606 6.34799 42.848 5.84399 44.162 5.84399C44.804 5.84399 45.434 5.96999 46.016 6.20399C46.664 6.46799 47.228 6.91799 47.666 7.46399L49.358 9.56999Z" fill="#E69F2D"/>
</svg>
